Muli-Muli-Italic-500B.ufo
<glyph name="quotedbl" format="1">
  <advance width="764.8"/>
  <unicode hex="0022"/>
  <outline>
    <contour>
      <point x="229.9" y="912.0" type="line"/>
      <point x="241.5" y="1456.0" type="line"/>
      <point x="450.5" y="1456.0" type="line"/>
      <point x="338.8" y="912.0" type="line"/>
    </contour>
    <contour>
      <point x="551.2" y="912.0" type="line"/>
      <point x="562.8" y="1456.0" type="line"/>
      <point x="771.8" y="1456.0" type="line"/>
      <point x="660.1" y="912.0" type="line"/>
    </contour>
  </outline>
</glyph>
<glyph name="numbersign" format="1">
  <advance width="1278.4"/>
  <unicode hex="0023"/>
  <outline>
    <contour>
      <point x="233.3" y="92.1" type="line"/>
      <point x="351.1" y="503.0" type="line"/>
      <point x="103.9" y="503.0" type="line"/>
      <point x="127.2" y="644.4" type="line"/>
      <point x="388.0" y="644.4" type="line"/>
      <point x="398.5" y="686.4"/>
      <point x="452.1" y="865.5"/>
      <point x="463.3" y="907.5" type="curve"/>
      <point x="206.8" y="907.5" type="line"/>
      <point x="231.1" y="1045.0" type="line"/>
      <point x="496.3" y="1045.0" type="line"/>
      <point x="611.3" y="1439.9" type="line"/>
      <point x="774.9" y="1439.9" type="line"/>
      <point x="666.8" y="1045.0" type="line"/>
      <point x="892.8" y="1045.0" type="line"/>
      <point x="1002.2" y="1439.9" type="line"/>
      <point x="1168.1" y="1439.9" type="line"/>
      <point x="1058.0" y="1045.0" type="line"/>
      <point x="1298.0" y="1045.0" type="line"/>
      <point x="1273.0" y="907.5" type="line"/>
      <point x="1019.8" y="907.5" type="line"/>
      <point x="945.1" y="644.4" type="line"/>
      <point x="1197.1" y="644.4" type="line"/>
      <point x="1174.4" y="503.0" type="line"/>
      <point x="911.5" y="503.0" type="line"/>
      <point x="795.0" y="92.1" type="line"/>
      <point x="629.8" y="92.1" type="line"/>
      <point x="742.0" y="503.0" type="line"/>
      <point x="515.3" y="503.0" type="line"/>
      <point x="402.1" y="92.1" type="line"/>
    </contour>
    <contour>
      <point x="552.2" y="644.4" type="line"/>
      <point x="779.9" y="644.4" type="line"/>
      <point x="854.6" y="907.5" type="line"/>
      <point x="627.9" y="907.5" type="line"/>
    </contour>
  </outline>
</glyph>
<glyph name="percent" format="1">
  <advance width="1850.83390289"/>
  <unicode hex="0025"/>
  <outline>
    <contour>
      <point x="544.5" y="848.6" type="curve" smooth="yes"/>
      <point x="420.1" y="848.6"/>
      <point x="379.6" y="958.0"/>
      <point x="391.3" y="1093.4" type="curve" smooth="yes"/>
      <point x="402.0" y="1220.2"/>
      <point x="458.7" y="1340.6"/>
      <point x="588.0" y="1340.6" type="curve" smooth="yes"/>
      <point x="715.9" y="1340.6"/>
      <point x="752.6" y="1225.8"/>
      <point x="741.2" y="1095.5" type="curve" smooth="yes"/>
      <point x="729.5" y="962.9"/>
      <point x="668.9" y="848.6"/>
    </contour>
    <contour>
      <point x="531.5" y="715.4" type="curve" smooth="yes"/>
      <point x="753.4" y="715.4"/>
      <point x="897.3" y="880.9"/>
      <point x="916.3" y="1094.8" type="curve" smooth="yes"/>
      <point x="935.0" y="1308.0"/>
      <point x="825.3" y="1473.8"/>
      <point x="600.3" y="1473.8" type="curve" smooth="yes"/>
      <point x="377.4" y="1473.8"/>
      <point x="234.2" y="1305.2"/>
      <point x="215.5" y="1093.4" type="curve" smooth="yes"/>
      <point x="196.5" y="878.8"/>
      <point x="308.2" y="715.4"/>
    </contour>
    <contour>
      <point x="402.077692154" y="0.0" type="line"/>
      <point x="573.677692154" y="0.0" type="line"/>
      <point x="1570.97769215" y="1456.0" type="line"/>
      <point x="1398.37769215" y="1456.0" type="line"/>
    </contour>
    <contour>
      <point x="1395.87769215" y="109.1" type="curve" smooth="yes"/>
      <point x="1271.47769215" y="109.1"/>
      <point x="1230.27769215" y="218.5"/>
      <point x="1241.97769215" y="353.2" type="curve" smooth="yes"/>
      <point x="1252.67769215" y="480.0"/>
      <point x="1310.07769215" y="601.8"/>
      <point x="1440.07769215" y="601.8" type="curve" smooth="yes"/>
      <point x="1567.97769215" y="601.8"/>
      <point x="1603.27769215" y="487.0"/>
      <point x="1591.87769215" y="356.7" type="curve" smooth="yes"/>
      <point x="1580.17769215" y="224.1"/>
      <point x="1520.97769215" y="109.1"/>
    </contour>
    <contour>
      <point x="1382.87769215" y="-24.1" type="curve" smooth="yes"/>
      <point x="1604.77769215" y="-24.1"/>
      <point x="1747.97769215" y="142.1"/>
      <point x="1766.97769215" y="356.0" type="curve" smooth="yes"/>
      <point x="1785.67769215" y="569.2"/>
      <point x="1676.67769215" y="735.0"/>
      <point x="1451.67769215" y="735.0" type="curve" smooth="yes"/>
      <point x="1228.77769215" y="735.0"/>
      <point x="1085.57769215" y="565.7"/>
      <point x="1066.87769215" y="353.9" type="curve" smooth="yes"/>
      <point x="1047.87769215" y="140.0"/>
      <point x="1160.27769215" y="-24.1"/>
    </contour>
  </outline>
</glyph>
<glyph name="parenleft" format="1">
  <advance width="636.74165842"/>
  <unicode hex="0028"/>
  <outline>
    <contour>
      <point x="385.3" y="-180.6" type="line"/>
      <point x="248.4" y="59.6"/>
      <point x="150.1" y="357.5"/>
      <point x="175.8" y="654.5" type="curve" smooth="yes"/>
      <point x="203.5" y="965.8"/>
      <point x="337.8" y="1242.3"/>
      <point x="527.5" y="1506.0" type="curve"/>
      <point x="720.4" y="1506.0" type="line"/>
      <point x="527.2" y="1238.1"/>
      <point x="404.6" y="944.7"/>
      <point x="378.9" y="654.6" type="curve" smooth="yes"/>
      <point x="355.2" y="385.2"/>
      <point x="436.3" y="74.6"/>
      <point x="573.0" y="-180.6" type="curve"/>
    </contour>
  </outline>
</glyph>
<glyph name="asterisk" format="1">
  <advance width="1094.7"/>
  <unicode hex="002A"/>
  <outline>
    <contour>
      <point x="774.296190945" y="695.9" type="line"/>
      <point x="636.096190945" y="949.4" type="line"/>
      <point x="455.296190945" y="699.4" type="line"/>
      <point x="310.396190945" y="799.8" type="line"/>
      <point x="530.096190945" y="1032.3" type="line"/>
      <point x="266.296190945" y="1127.0" type="line"/>
      <point x="333.296190945" y="1282.9" type="line"/>
      <point x="585.796190945" y="1163.1" type="line"/>
      <point x="579.396190945" y="1456.0" type="line"/>
      <point x="769.196190945" y="1456.0" type="line"/>
      <point x="720.496190945" y="1165.2" type="line"/>
      <point x="971.296190945" y="1283.6" type="line"/>
      <point x="1031.39619094" y="1133.3" type="line"/>
      <point x="755.896190945" y="1033.7" type="line"/>
      <point x="938.396190945" y="794.9" type="line"/>
    </contour>
  </outline>
</glyph>
<glyph name="slash" format="1">
  <advance width="965.4"/>
  <unicode hex="002F"/>
  <outline>
    <contour>
      <point x="84.2" y="-120.0" type="line"/>
      <point x="795.5" y="1456.0" type="line"/>
      <point x="987.2" y="1456.0" type="line"/>
      <point x="271.6" y="-120.0" type="line"/>
    </contour>
  </outline>
</glyph>
<glyph name="zero" format="1">
  <advance width="1240.20036794"/>
  <unicode hex="0030"/>
  <outline>
    <contour>
      <point x="643.796335234" y="157.4" type="curve" smooth="yes"/>
      <point x="850.796335234" y="157.4"/>
      <point x="938.696335234" y="403.3"/>
      <point x="967.396335234" y="733.8" type="curve" smooth="yes"/>
      <point x="994.196335234" y="1046.0"/>
      <point x="951.296335234" y="1301.9"/>
      <point x="743.996335234" y="1301.9" type="curve" smooth="yes"/>
      <point x="530.396335234" y="1301.9"/>
      <point x="434.596335234" y="1047.0"/>
      <point x="406.796335234" y="734.5" type="curve" smooth="yes"/>
      <point x="378.096335234" y="404.0"/>
      <point x="430.196335234" y="157.4"/>
    </contour>
    <contour>
      <point x="624.596335234" y="-23.0" type="curve" smooth="yes"/>
      <point x="295.296335234" y="-23.0"/>
      <point x="150.996335234" y="287.1"/>
      <point x="190.296335234" y="734.8" type="curve" smooth="yes"/>
      <point x="231.296335234" y="1200.8"/>
      <point x="425.996335234" y="1483.0"/>
      <point x="758.596335234" y="1483.0" type="curve" smooth="yes"/>
      <point x="1090.89633523" y="1483.0"/>
      <point x="1226.69633523" y="1193.1"/>
      <point x="1185.99633523" y="734.8" type="curve" smooth="yes"/>
      <point x="1146.69633523" y="287.7"/>
      <point x="959.196335234" y="-23.0"/>
    </contour>
  </outline>
</glyph>
<glyph name="two" format="1">
  <advance width="1237.2"/>
  <unicode hex="0032"/>
  <outline>
    <contour>
      <point x="168.5" y="0.0" type="line"/>
      <point x="183.1" y="164.0" type="line"/>
      <point x="681.9721" y="650.56" type="line" smooth="yes"/>
      <point x="847.7201" y="810.7061"/>
      <point x="952.613818456" y="933.010211031"/>
      <point x="955.8941" y="1094.607" type="curve" smooth="yes"/>
      <point x="959.4941" y="1235.888"/>
      <point x="869.3252" y="1302.6"/>
      <point x="728.4" y="1302.6" type="curve" smooth="yes"/>
      <point x="583.0" y="1302.6"/>
      <point x="445.4" y="1238.6"/>
      <point x="360.5" y="1107.2" type="curve"/>
      <point x="247.1" y="1228.3" type="line"/>
      <point x="342.8" y="1391.9"/>
      <point x="530.3" y="1481.7"/>
      <point x="746.5" y="1481.7" type="curve" smooth="yes"/>
      <point x="1002.343" y="1481.7"/>
      <point x="1174.514" y="1354.757"/>
      <point x="1167.314" y="1106.209" type="curve" smooth="yes"/>
      <point x="1162.664" y="881.111"/>
      <point x="1007.5295" y="701.4088"/>
      <point x="810.1507" y="514.36" type="curve" smooth="yes"/>
      <point x="456.4" y="174.5" type="line"/>
      <point x="1091.7" y="174.5" type="line"/>
      <point x="1075.8" y="0.0" type="line"/>
    </contour>
  </outline>
</glyph>
<glyph name="five" format="1">
  <advance width="1237.2"/>
  <unicode hex="0035"/>
  <outline>
    <contour>
      <point x="1167.0" y="508.8" type="curve" smooth="yes"/>
      <point x="1158.6" y="184.4"/>
      <point x="918.5" y="-23.0"/>
      <point x="616.6" y="-23.0" type="curve" smooth="yes"/>
      <point x="455.0" y="-23.0"/>
      <point x="294.5" y="37.2"/>
      <point x="183.3" y="162.6" type="curve"/>
      <point x="301.9" y="312.8" type="line"/>
      <point x="390.0" y="201.3"/>
      <point x="512.9" y="157.4"/>
      <point x="628.9" y="157.4" type="curve" smooth="yes"/>
      <point x="816.0" y="157.4"/>
      <point x="945.1" y="297.6"/>
      <point x="950.2" y="500.2" type="curve" smooth="yes"/>
      <point x="953.8" y="681.1"/>
      <point x="847.8" y="787.1"/>
      <point x="717.2" y="787.1" type="curve" smooth="yes"/>
      <point x="630.1" y="787.1"/>
      <point x="545.2" y="752.0"/>
      <point x="493.7" y="661.5" type="curve"/>
      <point x="302.5" y="693.3" type="line"/>
      <point x="380.4" y="1456.0" type="line"/>
      <point x="1171.8" y="1456.0" type="line"/>
      <point x="1156.6" y="1275.6" type="line"/>
      <point x="556.4" y="1275.6" type="line"/>
      <point x="495.0" y="854.6" type="line"/>
      <point x="559.0" y="930.4"/>
      <point x="662.8" y="958.0"/>
      <point x="760.6" y="958.0" type="curve" smooth="yes"/>
      <point x="1018.7" y="958.0"/>
      <point x="1174.2" y="764.4"/>
    </contour>
  </outline>
</glyph>
<glyph name="seven" format="1">
  <advance width="1240.2"/>
  <unicode hex="0037"/>
  <outline>
    <contour>
      <point x="325.8" y="0.0" type="line"/>
      <point x="965.4" y="1281.5" type="line"/>
      <point x="259.9" y="1281.5" type="line"/>
      <point x="275.8" y="1456.0" type="line"/>
      <point x="1218.5" y="1456.0" type="line"/>
      <point x="1205.3" y="1297.2" type="line"/>
      <point x="554.5" y="0.0" type="line"/>
    </contour>
  </outline>
</glyph>
<glyph name="eight" format="1">
  <advance width="1237.2"/>
  <unicode hex="0038"/>
  <outline>
    <contour>
      <point x="634.177333661" y="-23.0" type="curve" smooth="yes"/>
      <point x="361.677333661" y="-23.0"/>
      <point x="151.888666831" y="123.5"/>
      <point x="174.188666831" y="384.3" type="curve" smooth="yes"/>
      <point x="189.888666831" y="558.7"/>
      <point x="303.977333661" y="694.5"/>
      <point x="490.877333661" y="763.3" type="curve"/>
      <point x="342.977333661" y="827.7"/>
      <point x="255.588666831" y="942.3"/>
      <point x="270.288666831" y="1106.6" type="curve" smooth="yes"/>
      <point x="290.588666831" y="1343.4"/>
      <point x="501.277333661" y="1483.0"/>
      <point x="762.977333661" y="1483.0" type="curve" smooth="yes"/>
      <point x="1035.97733366" y="1483.0"/>
      <point x="1210.48866683" y="1340.2"/>
      <point x="1190.18866683" y="1101.8" type="curve" smooth="yes"/>
      <point x="1175.48866683" y="937.2"/>
      <point x="1073.37733366" y="821.9"/>
      <point x="913.577333661" y="761.7" type="curve"/>
      <point x="1079.77733366" y="695.8"/>
      <point x="1175.48866683" y="553.3"/>
      <point x="1160.78866683" y="380.8" type="curve" smooth="yes"/>
      <point x="1138.48866683" y="120.3"/>
      <point x="893.877333661" y="-23.0"/>
    </contour>
    <contour>
      <point x="648.3" y="149.6" type="curve" smooth="yes"/>
      <point x="813.7" y="149.6"/>
      <point x="937.177333661" y="236.2"/>
      <point x="950.877333661" y="397.3" type="curve" smooth="yes"/>
      <point x="963.277333661" y="538.2"/>
      <point x="852.177333661" y="645.2"/>
      <point x="696.477333661" y="680.6" type="curve"/>
      <point x="529.377333661" y="646.5"/>
      <point x="401.877333661" y="544.6"/>
      <point x="389.177333661" y="395.7" type="curve" smooth="yes"/>
      <point x="375.777333661" y="240.7"/>
      <point x="481.3" y="149.6"/>
    </contour>
    <contour>
      <point x="707.877333661" y="846.6" type="curve"/>
      <point x="868.177333661" y="883.2"/>
      <point x="970.277333661" y="971.0"/>
      <point x="981.977333661" y="1104.5" type="curve" smooth="yes"/>
      <point x="993.377333661" y="1234.7"/>
      <point x="884.2" y="1313.2"/>
      <point x="748.2" y="1313.2" type="curve" smooth="yes"/>
      <point x="608.7" y="1313.2"/>
      <point x="490.677333661" y="1237.3"/>
      <point x="478.977333661" y="1099.4" type="curve" smooth="yes"/>
      <point x="467.577333661" y="970.4"/>
      <point x="552.277333661" y="881.6"/>
    </contour>
  </outline>
</glyph>
<glyph name="nine" format="1">
  <advance width="1237.2"/>
  <unicode hex="0039"/>
  <outline>
    <contour>
      <point x="565.0" y="-24.3" type="curve" smooth="yes"/>
      <point x="452.3" y="-24.3"/>
      <point x="329.0" y="9.8"/>
      <point x="200.2" y="77.1" type="curve"/>
      <point x="288.8" y="244.4" type="line"/>
      <point x="382.7" y="187.3"/>
      <point x="476.8" y="157.7"/>
      <point x="564.4" y="157.7" type="curve" smooth="yes"/>
      <point x="763.8" y="157.7"/>
      <point x="926.9" y="312.5"/>
      <point x="956.3" y="643.5" type="curve"/>
      <point x="959.0" y="690.2" type="line"/>
      <point x="883.1" y="575.9"/>
      <point x="766.3" y="531.5"/>
      <point x="633.1" y="531.5" type="curve" smooth="yes"/>
      <point x="355.2" y="531.5"/>
      <point x="200.3" y="723.1"/>
      <point x="224.3" y="997.9" type="curve" smooth="yes"/>
      <point x="248.3" y="1273.1"/>
      <point x="450.2" y="1483.0"/>
      <point x="750.1" y="1483.0" type="curve" smooth="yes"/>
      <point x="1070.4" y="1483.0"/>
      <point x="1223.0" y="1229.4"/>
      <point x="1183.0" y="772.4" type="curve" smooth="yes"/>
      <point x="1137.5" y="250.8"/>
      <point x="887.1" y="-24.3"/>
    </contour>
    <contour>
      <point x="440.8" y="1003.6" type="curve" smooth="yes"/>
      <point x="426.1" y="835.7"/>
      <point x="491.0" y="706.6"/>
      <point x="673.0" y="706.6" type="curve" smooth="yes"/>
      <point x="834.6" y="706.6"/>
      <point x="962.1" y="813.0"/>
      <point x="978.4" y="1002.9" type="curve" smooth="yes"/>
      <point x="991.8" y="1158.3"/>
      <point x="913.6" y="1301.9"/>
      <point x="735.2" y="1301.9" type="curve" smooth="yes"/>
      <point x="567.9" y="1301.9"/>
      <point x="455.5" y="1177.4"/>
    </contour>
  </outline>
</glyph>
<glyph name="colon" format="1">
  <advance width="542.4"/>
  <unicode hex="003A"/>
  <outline>
    <contour>
      <point x="138.5" y="-6.1" type="line"/>
      <point x="159.4" y="232.8" type="line"/>
      <point x="416.2" y="232.8" type="line"/>
      <point x="395.3" y="-6.1" type="line"/>
    </contour>
    <contour>
      <point x="214.8" y="867.1" type="line"/>
      <point x="235.0" y="1105.3" type="line"/>
      <point x="491.5" y="1105.3" type="line"/>
      <point x="470.9" y="867.1" type="line"/>
    </contour>
  </outline>
</glyph>
<glyph name="less" format="1">
  <advance width="1329.2"/>
  <unicode hex="003C"/>
  <outline>
    <contour>
      <point x="1108.7" y="38.4" type="line"/>
      <point x="183.9" y="516.0" type="line"/>
      <point x="192.2" y="617.2" type="line"/>
      <point x="1206.0" y="1083.8" type="line"/>
      <point x="1189.1" y="894.8" type="line"/>
      <point x="448.4" y="564.0" type="line"/>
      <point x="1125.6" y="224.1" type="line"/>
    </contour>
  </outline>
</glyph>
<glyph name="question" format="1">
  <advance width="1049.5"/>
  <unicode hex="003F"/>
  <outline>
    <contour>
      <point x="374.9" y="381.8" type="curve"/>
      <point x="560.0" y="381.8" type="line"/>
      <point x="561.3" y="392.7"/>
      <point x="567.2" y="468.4"/>
      <point x="568.5" y="477.7" type="curve" smooth="yes"/>
      <point x="594.983547349" y="772.519020843"/>
      <point x="990.784269439" y="835.017787672"/>
      <point x="1016.0" y="1128.5" type="curve" smooth="yes"/>
      <point x="1036.3" y="1365.6"/>
      <point x="861.5" y="1481.2"/>
      <point x="622.9" y="1481.2" type="curve" smooth="yes"/>
      <point x="526.4" y="1481.2"/>
      <point x="413.1" y="1459.7"/>
      <point x="302.2" y="1411.4" type="curve"/>
      <point x="287.0" y="1228.8" type="line"/>
      <point x="383.2" y="1275.4"/>
      <point x="488.0" y="1303.9"/>
      <point x="581.3" y="1303.9" type="curve" smooth="yes"/>
      <point x="712.6" y="1303.9"/>
      <point x="818.3" y="1252.2"/>
      <point x="806.9" y="1120.8" type="curve" smooth="yes"/>
      <point x="787.5" y="901.0"/>
      <point x="407.0" y="789.4"/>
      <point x="384.7" y="537.4" type="curve" smooth="yes"/>
      <point x="382.6" y="512.9"/>
      <point x="374.9" y="381.8"/>
    </contour>
    <contour>
      <point x="314.9" y="-4.9" type="line"/>
      <point x="565.9" y="-4.9" type="line"/>
      <point x="586.8" y="234.0" type="line"/>
      <point x="335.8" y="234.0" type="line"/>
    </contour>
  </outline>
</glyph>
<glyph name="D" format="1">
  <advance width="1535.9"/>
  <unicode hex="0044"/>
  <outline>
    <contour>
      <point x="416.4" y="180.4" type="line"/>
      <point x="647.0" y="180.4" type="line" smooth="yes"/>
      <point x="1035.7" y="180.4"/>
      <point x="1241.8" y="386.7"/>
      <point x="1271.1" y="725.5" type="curve" smooth="yes"/>
      <point x="1304.3" y="1106.7"/>
      <point x="1116.9" y="1275.6"/>
      <point x="664.5" y="1275.6" type="curve" smooth="yes"/>
      <point x="512.6" y="1275.6" type="line"/>
    </contour>
    <contour>
      <point x="188.7" y="0.0" type="line"/>
      <point x="316.7" y="1456.0" type="line"/>
      <point x="658.8" y="1456.0" type="line" smooth="yes"/>
      <point x="1213.8" y="1456.0"/>
      <point x="1539.1" y="1238.6"/>
      <point x="1493.9" y="725.9" type="curve" smooth="yes"/>
      <point x="1453.3" y="265.3"/>
      <point x="1142.6" y="0.0"/>
      <point x="616.7" y="0.0" type="curve" smooth="yes"/>
    </contour>
  </outline>
</glyph>
<glyph name="E" format="1">
  <advance width="1197.5"/>
  <unicode hex="0045"/>
  <outline>
    <contour>
      <point x="188.7" y="0.0" type="line"/>
      <point x="316.7" y="1456.0" type="line"/>
      <point x="1202.9" y="1456.0" type="line"/>
      <point x="1187.7" y="1275.6" type="line"/>
      <point x="512.0" y="1275.6" type="line"/>
      <point x="475.6" y="856.7" type="line"/>
      <point x="1113.6" y="856.7" type="line"/>
      <point x="1097.4" y="676.0" type="line"/>
      <point x="460.0" y="676.0" type="line"/>
      <point x="416.4" y="180.4" type="line"/>
      <point x="1120.5" y="180.4" type="line"/>
      <point x="1104.6" y="0.0" type="line"/>
    </contour>
  </outline>
</glyph>
<glyph name="F" format="1">
  <advance width="1126.61799778"/>
  <unicode hex="0046"/>
  <outline>
    <contour>
      <point x="188.7" y="0.0" type="line"/>
      <point x="316.7" y="1456.0" type="line"/>
      <point x="1164.8" y="1456.0" type="line"/>
      <point x="1149.6" y="1275.6" type="line"/>
      <point x="512.3" y="1275.6" type="line"/>
      <point x="474.2" y="847.6" type="line"/>
      <point x="1077.9" y="847.6" type="line"/>
      <point x="1062.0" y="668.8" type="line"/>
      <point x="458.3" y="668.8" type="line"/>
      <point x="400.2" y="0.0" type="line"/>
    </contour>
  </outline>
</glyph>
<glyph name="I" format="1">
  <advance width="581.9"/>
  <unicode hex="0049"/>
  <outline>
    <contour>
      <point x="182.4" y="0.0" type="line"/>
      <point x="310.4" y="1456.0" type="line"/>
      <point x="519.6" y="1456.0" type="line"/>
      <point x="391.6" y="0.0" type="line"/>
    </contour>
  </outline>
</glyph>
<glyph name="J" format="1">
  <advance width="750.798370026"/>
  <unicode hex="004A"/>
  <outline>
    <contour>
      <point x="172.7" y="-349.9" type="curve" smooth="yes"/>
      <point x="73.2" y="-349.9"/>
      <point x="-26.3" y="-322.9"/>
      <point x="-92.2" y="-298.0" type="curve"/>
      <point x="-45.4" y="-132.6" type="line"/>
      <point x="7.2" y="-149.7"/>
      <point x="80.9" y="-171.1"/>
      <point x="157.1" y="-171.1" type="curve" smooth="yes"/>
      <point x="300.8" y="-171.1"/>
      <point x="342.4" y="-75.6"/>
      <point x="357.5" y="98.0" type="curve" smooth="yes"/>
      <point x="475.513418254" y="1456.0" type="line"/>
      <point x="689.913418254" y="1456.0" type="line"/>
      <point x="570.5" y="99.3" type="line" smooth="yes"/>
      <point x="544.5" y="-197.8"/>
      <point x="405.5" y="-349.9"/>
    </contour>
  </outline>
</glyph>
<glyph name="P" format="1">
  <advance width="1272.7"/>
  <unicode hex="0050"/>
  <outline>
    <contour>
      <point x="188.7" y="0.0" type="line"/>
      <point x="316.7" y="1456.0" type="line"/>
      <point x="703.7" y="1456.0" type="line" smooth="yes"/>
      <point x="1045.6" y="1456.0"/>
      <point x="1323.7" y="1421.6"/>
      <point x="1291.4" y="1053.6" type="curve" smooth="yes"/>
      <point x="1264.4" y="743.8"/>
      <point x="1028.0" y="651.1"/>
      <point x="694.6" y="651.1" type="curve" smooth="yes"/>
      <point x="456.6" y="651.1" type="line"/>
      <point x="403.1" y="0.0" type="line"/>
    </contour>
    <contour>
      <point x="473.5" y="829.3" type="line"/>
      <point x="718.8" y="829.3" type="line" smooth="yes"/>
      <point x="915.3" y="829.3"/>
      <point x="1055.0" y="873.2"/>
      <point x="1070.4" y="1052.2" type="curve" smooth="yes"/>
      <point x="1088.8" y="1265.6"/>
      <point x="935.3" y="1275.6"/>
      <point x="711.6" y="1275.6" type="curve" smooth="yes"/>
      <point x="512.0" y="1275.6" type="line"/>
    </contour>
  </outline>
</glyph>
<glyph name="Q" format="1">
  <advance width="1638.2"/>
  <unicode hex="0051"/>
  <outline>
    <contour>
      <point x="1150.4" y="-433.9" type="line"/>
      <point x="1150.4" y="-433.9"/>
      <point x="966.6" y="-248.1"/>
      <point x="870.0" y="-8.7" type="curve"/>
      <point x="1064.6" y="28.0" type="line"/>
      <point x="1133.4" y="-146.6"/>
      <point x="1286.2" y="-300.8"/>
      <point x="1286.2" y="-300.8" type="curve"/>
    </contour>
    <component base="O"/>
  </outline>
</glyph>
<glyph name="T" format="1">
  <advance width="1155.13304601"/>
  <unicode hex="0054"/>
  <outline>
    <contour>
      <point x="471.6" y="0.0" type="line"/>
      <point x="583.7" y="1275.6" type="line"/>
      <point x="124.0" y="1275.6" type="line"/>
      <point x="139.9" y="1456.0" type="line"/>
      <point x="1274.4" y="1456.0" type="line"/>
      <point x="1258.5" y="1275.6" type="line"/>
      <point x="793.9" y="1275.6" type="line"/>
      <point x="681.8" y="0.0" type="line"/>
    </contour>
  </outline>
</glyph>
<glyph name="U" format="1">
  <advance width="1493.54554561"/>
  <unicode hex="0055"/>
  <outline>
    <contour>
      <point x="742.9" y="-22.7" type="curve" smooth="yes"/>
      <point x="295.1" y="-22.7"/>
      <point x="185.6" y="224.6"/>
      <point x="214.6" y="556.7" type="curve" smooth="yes"/>
      <point x="294.0" y="1456.0" type="line"/>
      <point x="508.0" y="1456.0" type="line"/>
      <point x="429.0" y="550.2" type="line" smooth="yes"/>
      <point x="403.7" y="266.7"/>
      <point x="518.7" y="157.4"/>
      <point x="761.6" y="157.4" type="curve" smooth="yes"/>
      <point x="992.6" y="157.4"/>
      <point x="1137.7" y="269.5"/>
      <point x="1161.6" y="546.7" type="curve" smooth="yes"/>
      <point x="1242.0" y="1456.0" type="line"/>
      <point x="1456.0" y="1456.0" type="line"/>
      <point x="1377.3" y="561.6" type="line"/>
      <point x="1346.2" y="217.6"/>
      <point x="1176.0" y="-22.7"/>
    </contour>
  </outline>
</glyph>
<glyph name="X" format="1">
  <advance width="1318.9"/>
  <unicode hex="0058"/>
  <outline>
    <contour>
      <point x="1045.2" y="0.0" type="line"/>
      <point x="706.7" y="569.8" type="line"/>
      <point x="264.2" y="0.0" type="line"/>
      <point x="24.4" y="0.0" type="line"/>
      <point x="599.2" y="735.6" type="line"/>
      <point x="173.0" y="1456.0" type="line"/>
      <point x="421.1" y="1456.0" type="line"/>
      <point x="739.4" y="912.4" type="line"/>
      <point x="1156.6" y="1456.0" type="line"/>
      <point x="1391.2" y="1456.0" type="line"/>
      <point x="846.1" y="746.6" type="line"/>
      <point x="1291.1" y="0.0" type="line"/>
    </contour>
  </outline>
</glyph>
<glyph name="Z" format="1">
  <advance width="1198.2"/>
  <unicode hex="005A"/>
  <outline>
    <contour>
      <point x="95.0" y="0.0" type="line"/>
      <point x="105.6" y="113.2" type="line"/>
      <point x="943.3" y="1275.6" type="line"/>
      <point x="236.9" y="1275.6" type="line"/>
      <point x="252.1" y="1456.0" type="line"/>
      <point x="1243.2" y="1456.0" type="line"/>
      <point x="1233.6" y="1346.8" type="line"/>
      <point x="388.3" y="180.4" type="line"/>
      <point x="1129.8" y="180.4" type="line"/>
      <point x="1113.9" y="0.0" type="line"/>
    </contour>
  </outline>
</glyph>
<glyph name="backslash" format="1">
  <advance width="825.1"/>
  <unicode hex="005C"/>
  <outline>
    <contour>
      <point x="635.6" y="-44.3" type="line"/>
      <point x="150.8" y="1456.0" type="line"/>
      <point x="363.4" y="1456.0" type="line"/>
      <point x="845.6" y="-44.3" type="line"/>
    </contour>
  </outline>
</glyph>
<glyph name="bracketright" format="1">
  <advance width="675.784951772"/>
  <unicode hex="005D"/>
  <outline>
    <contour>
      <point x="82.3" y="-230.6" type="line"/>
      <point x="96.2" y="-76.5" type="line"/>
      <point x="302.3" y="-76.5" type="line"/>
      <point x="422.6" y="1301.9" type="line"/>
      <point x="215.8" y="1301.9" type="line"/>
      <point x="229.7" y="1456.0" type="line"/>
      <point x="641.9" y="1456.0" type="line"/>
      <point x="493.8" y="-230.6" type="line"/>
    </contour>
  </outline>
</glyph>
<glyph name="underscore" format="1">
  <advance width="961.6"/>
  <unicode hex="005F"/>
  <outline>
    <contour>
      <point x="-15.0" y="-215.0" type="line"/>
      <point x="-1.1" y="-54.9" type="line"/>
      <point x="976.1" y="-54.9" type="line"/>
      <point x="962.2" y="-215.0" type="line"/>
    </contour>
  </outline>
</glyph>
<glyph name="a" format="1">
  <advance width="1265.8"/>
  <unicode hex="0061"/>
  <outline>
    <contour>
      <point x="690.3" y="886.2" type="curve" smooth="yes"/>
      <point x="472.1596" y="886.2"/>
      <point x="352.7751" y="705.093"/>
      <point x="347.3751" y="476.1486" type="curve" smooth="yes"/>
      <point x="342.2751" y="293.2042"/>
      <point x="421.5673" y="141.4"/>
      <point x="630.3" y="141.4" type="curve" smooth="yes"/>
      <point x="842.5768" y="141.4"/>
      <point x="959.7872" y="298.5078"/>
      <point x="964.8872" y="565.1109" type="curve" smooth="yes"/>
      <point x="970.2872" y="759.4844"/>
      <point x="884.142" y="886.2"/>
    </contour>
    <contour>
      <point x="935.3" y="216.9" type="line"/>
      <point x="890.8382" y="78.58723"/>
      <point x="766.8047" y="-22.81683"/>
      <point x="583.4998" y="-22.81683" type="curve" smooth="yes"/>
      <point x="278.7767" y="-22.81683"/>
      <point x="135.4026" y="228.6712"/>
      <point x="141.7026" y="475.9398" type="curve" smooth="yes"/>
      <point x="149.2026" y="779.9955"/>
      <point x="340.5422" y="1051.58"/>
      <point x="661.3623" y="1051.58" type="curve" smooth="yes"/>
      <point x="848.4709" y="1051.58"/>
      <point x="968.2203" y="942.7561"/>
      <point x="991.3" y="821.0" type="curve"/>
      <point x="1003.5" y="1026.0" type="line"/>
      <point x="1202.3" y="1026.0" type="line"/>
      <point x="1112.3" y="0.0" type="line"/>
      <point x="909.2" y="0.0" type="line"/>
    </contour>
  </outline>
</glyph>
<glyph name="b" format="1">
  <advance width="1267.9"/>
  <unicode hex="0062"/>
  <outline>
    <contour>
      <point x="701.0" y="-22.7" type="curve"/>
      <point x="494.5" y="-20.6"/>
      <point x="399.9" y="126.3"/>
      <point x="375.4" y="185.1" type="curve"/>
      <point x="361.3" y="0.0" type="line"/>
      <point x="153.2" y="0.0" type="line"/>
      <point x="153.2" y="0.0"/>
      <point x="176.7" y="179.9"/>
      <point x="184.5" y="271.3" type="curve" smooth="yes"/>
      <point x="289.9" y="1476.3" type="line"/>
      <point x="493.4" y="1476.3" type="line"/>
      <point x="437.2" y="856.5" type="line"/>
      <point x="484.7" y="950.5"/>
      <point x="617.5" y="1051.3"/>
      <point x="794.4" y="1051.3" type="curve" smooth="yes"/>
      <point x="1067.8" y="1051.3"/>
      <point x="1241.4" y="829.3"/>
      <point x="1214.7" y="522.0" type="curve" smooth="yes"/>
      <point x="1185.0" y="185.5"/>
      <point x="962.7" y="-27.6"/>
    </contour>
    <contour>
      <point x="682.6" y="141.4" type="curve" smooth="yes"/>
      <point x="871.9" y="139.3"/>
      <point x="983.5" y="302.1"/>
      <point x="1001.6" y="530.4" type="curve" smooth="yes"/>
      <point x="1017.9" y="737.1"/>
      <point x="932.2" y="886.2"/>
      <point x="744.7" y="886.2" type="curve" smooth="yes"/>
      <point x="550.9" y="886.2"/>
      <point x="420.7" y="735.7"/>
      <point x="402.3" y="519.2" type="curve" smooth="yes"/>
      <point x="383.5" y="295.8"/>
      <point x="483.5" y="143.5"/>
    </contour>
  </outline>
</glyph>
<glyph name="h" format="1">
  <advance width="1219.57697254"/>
  <unicode hex="0068"/>
  <outline>
    <contour>
      <point x="153.6" y="0.0" type="line"/>
      <point x="283.0" y="1476.3" type="line"/>
      <point x="486.8" y="1476.3" type="line"/>
      <point x="434.7" y="874.7" type="line"/>
      <point x="512.7" y="994.2"/>
      <point x="651.2" y="1051.3"/>
      <point x="777.6" y="1051.3" type="curve" smooth="yes"/>
      <point x="1058.7" y="1051.3"/>
      <point x="1131.9" y="828.1"/>
      <point x="1112.8" y="605.2" type="curve" smooth="yes"/>
      <point x="1059.7" y="0.0" type="line"/>
      <point x="854.9" y="0.0" type="line"/>
      <point x="908.0" y="604.2" type="line" smooth="yes"/>
      <point x="924.3" y="794.1"/>
      <point x="871.0" y="886.5"/>
      <point x="728.8" y="886.5" type="curve" smooth="yes"/>
      <point x="565.7" y="886.5"/>
      <point x="424.5" y="766.2"/>
      <point x="410.7" y="603.6" type="curve" smooth="yes"/>
      <point x="358.1" y="0.0" type="line"/>
    </contour>
  </outline>
</glyph>
<glyph name="j" format="1">
  <advance width="557.923574083"/>
  <unicode hex="006A"/>
  <outline>
    <contour>
      <point x="41.2" y="-389.1" type="curve" smooth="yes"/>
      <point x="-6.8" y="-389.1"/>
      <point x="-55.9" y="-386.4"/>
      <point x="-114.9" y="-373.2" type="curve"/>
      <point x="-85.3" y="-222.4" type="line"/>
      <point x="-46.7" y="-230.6"/>
      <point x="-13.1" y="-232.6"/>
      <point x="15.7" y="-232.6" type="curve" smooth="yes"/>
      <point x="150.0" y="-232.6"/>
      <point x="189.4" y="-152.8"/>
      <point x="206.1" y="42.6" type="curve" smooth="yes"/>
      <point x="292.1" y="1026.0" type="line"/>
      <point x="495.6" y="1026.0" type="line"/>
      <point x="406.9" y="9.8" type="line" smooth="yes"/>
      <point x="386.2" y="-225.5"/>
      <point x="299.4" y="-389.1"/>
    </contour>
    <contour>
      <point x="313.2" y="1271.5" type="line"/>
      <point x="330.1" y="1456.0" type="line"/>
      <point x="528.0" y="1456.0" type="line"/>
      <point x="511.8" y="1271.5" type="line"/>
    </contour>
  </outline>
</glyph>
<glyph name="o" format="1">
  <advance width="1254.95250666"/>
  <unicode hex="006F"/>
  <outline>
    <contour>
      <point x="643.1" y="141.4" type="curve" smooth="yes"/>
      <point x="851.3" y="141.4"/>
      <point x="969.964505317" y="299.3"/>
      <point x="988.764505317" y="512.9" type="curve" smooth="yes"/>
      <point x="1007.86450532" y="730.1"/>
      <point x="911.6" y="886.5"/>
      <point x="705.9" y="886.5" type="curve" smooth="yes"/>
      <point x="499.5" y="886.5"/>
      <point x="374.464505317" y="730.8"/>
      <point x="355.364505317" y="512.2" type="curve" smooth="yes"/>
      <point x="336.564505317" y="298.6"/>
      <point x="432.1" y="141.4"/>
    </contour>
    <contour>
      <point x="626.3" y="-22.7" type="curve" smooth="yes"/>
      <point x="303.1" y="-22.7"/>
      <point x="114.464505317" y="204.5"/>
      <point x="141.564505317" y="512.3" type="curve" smooth="yes"/>
      <point x="168.964505317" y="822.5"/>
      <point x="392.1" y="1051.3"/>
      <point x="724.5" y="1051.3" type="curve" smooth="yes"/>
      <point x="1057.6" y="1051.3"/>
      <point x="1229.96450532" y="823.1"/>
      <point x="1202.56450532" y="511.7" type="curve" smooth="yes"/>
      <point x="1175.46450532" y="206.1"/>
      <point x="957.9" y="-22.7"/>
    </contour>
  </outline>
</glyph>
<glyph name="r" format="1">
  <advance width="800.3"/>
  <unicode hex="0072"/>
  <outline>
    <contour>
      <point x="164.1" y="0.0" type="line"/>
      <point x="231.8" y="772.9" type="line" smooth="yes"/>
      <point x="237.6" y="835.8"/>
      <point x="241.0" y="1026.0"/>
      <point x="241.0" y="1026.0" type="curve"/>
      <point x="453.5" y="1026.0" type="line"/>
      <point x="441.2" y="860.4" type="line"/>
      <point x="506.4" y="988.1"/>
      <point x="612.1" y="1051.3"/>
      <point x="724.6" y="1051.3" type="curve" smooth="yes"/>
      <point x="759.1" y="1051.3"/>
      <point x="795.5" y="1047.0"/>
      <point x="829.4" y="1037.7" type="curve"/>
      <point x="814.2" y="853.8" type="line"/>
      <point x="791.4" y="861.5"/>
      <point x="747.3" y="876.2"/>
      <point x="697.4" y="876.2" type="curve" smooth="yes"/>
      <point x="550.5" y="876.2"/>
      <point x="435.6" y="768.0"/>
      <point x="418.9" y="574.1" type="curve" smooth="yes"/>
      <point x="368.6" y="0.0" type="line"/>
    </contour>
  </outline>
</glyph>
<glyph name="x" format="1">
  <advance width="1037.6"/>
  <unicode hex="0078"/>
  <outline>
    <contour>
      <point x="40.8" y="0.0" type="line"/>
      <point x="455.8" y="507.6" type="line"/>
      <point x="147.4" y="1026.0" type="line"/>
      <point x="367.1" y="1026.0" type="line"/>
      <point x="582.3" y="659.8" type="line"/>
      <point x="877.3" y="1026.0" type="line"/>
      <point x="1087.0" y="1026.0" type="line"/>
      <point x="683.1" y="527.8" type="line"/>
      <point x="1006.3" y="0.0" type="line"/>
      <point x="787.6" y="0.0" type="line"/>
      <point x="558.3" y="374.9" type="line"/>
      <point x="254.5" y="0.0" type="line"/>
    </contour>
  </outline>
</glyph>
<glyph name="z" format="1">
  <advance width="966.868403411"/>
  <unicode hex="007A"/>
  <outline>
    <contour>
      <point x="99.9684034113" y="0.0" type="line"/>
      <point x="109.568403411" y="108.9" type="line"/>
      <point x="685.668403411" y="861.5" type="line"/>
      <point x="170.668403411" y="861.5" type="line"/>
      <point x="185.568403411" y="1026.0" type="line"/>
      <point x="964.068403411" y="1026.0" type="line"/>
      <point x="953.768403411" y="919.1" type="line"/>
      <point x="377.968403411" y="163.5" type="line"/>
      <point x="902.768403411" y="163.5" type="line"/>
      <point x="900.768403411" y="0.0" type="line"/>
    </contour>
  </outline>
</glyph>
<glyph name="bar" format="1">
  <advance width="781.7"/>
  <unicode hex="007C"/>
  <outline>
    <contour>
      <point x="254.9" y="-474.0" type="line"/>
      <point x="429.7" y="1526.7" type="line"/>
      <point x="623.9" y="1526.7" type="line"/>
      <point x="449.1" y="-474.0" type="line"/>
    </contour>
  </outline>
</glyph>
<glyph name="braceright" format="1">
  <advance width="693.5"/>
  <unicode hex="007D"/>
  <outline>
    <contour>
      <point x="60.0" y="-212.2" type="curve"/>
      <point x="72.6" y="-52.8" type="line"/>
      <point x="195.2" y="-51.4"/>
      <point x="255.1" y="17.7"/>
      <point x="267.4" y="156.6" type="curve" smooth="yes"/>
      <point x="289.5" y="407.4" type="line" smooth="yes"/>
      <point x="300.3" y="530.4"/>
      <point x="390.7" y="603.5"/>
      <point x="486.0" y="635.8" type="curve"/>
      <point x="389.4" y="679.7"/>
      <point x="322.8" y="772.8"/>
      <point x="332.7" y="896.2" type="curve" smooth="yes"/>
      <point x="353.3" y="1136.3" type="line" smooth="yes"/>
      <point x="366.1" y="1288.3"/>
      <point x="292.2" y="1317.3"/>
      <point x="194.5" y="1317.6" type="curve"/>
      <point x="208.4" y="1476.0" type="line"/>
      <point x="469.8" y="1472.5"/>
      <point x="579.5" y="1359.8"/>
      <point x="562.2" y="1158.5" type="curve" smooth="yes"/>
      <point x="542.1" y="927.6" type="line" smooth="yes"/>
      <point x="529.8" y="790.1"/>
      <point x="572.2" y="712.5"/>
      <point x="697.6" y="704.8" type="curve"/>
      <point x="685.4" y="557.8" type="line"/>
      <point x="574.1" y="552.9"/>
      <point x="504.0" y="481.2"/>
      <point x="492.6" y="356.5" type="curve" smooth="yes"/>
      <point x="473.2" y="127.6" type="line" smooth="yes"/>
      <point x="456.2" y="-67.7"/>
      <point x="345.8" y="-212.2"/>
    </contour>
  </outline>
</glyph>
<glyph name="asciitilde" format="1">
  <advance width="1329.5"/>
  <unicode hex="007E"/>
  <outline>
    <contour>
      <point x="312.8" y="361.9" type="curve"/>
      <point x="167.2" y="435.2" type="line"/>
      <point x="209.5" y="580.9"/>
      <point x="324.7" y="702.9"/>
      <point x="497.8" y="702.9" type="curve" smooth="yes"/>
      <point x="579.9" y="702.9"/>
      <point x="676.2" y="660.3"/>
      <point x="759.4" y="622.5" type="curve"/>
      <point x="795.1" y="608.5"/>
      <point x="892.5" y="562.0"/>
      <point x="929.9" y="562.0" type="curve" smooth="yes"/>
      <point x="1001.8" y="562.0"/>
      <point x="1062.6" y="649.0"/>
      <point x="1092.3" y="740.0" type="curve"/>
      <point x="1253.7" y="688.8" type="line"/>
      <point x="1200.8" y="519.2"/>
      <point x="1083.6" y="394.9"/>
      <point x="916.6" y="394.9" type="curve" smooth="yes"/>
      <point x="854.7" y="394.9"/>
      <point x="774.1" y="430.8"/>
      <point x="695.4" y="468.6" type="curve"/>
      <point x="659.7" y="483.3"/>
      <point x="540.9" y="537.8"/>
      <point x="487.5" y="537.8" type="curve" smooth="yes"/>
      <point x="399.6" y="537.8"/>
      <point x="344.1" y="456.2"/>
    </contour>
  </outline>
</glyph>
<glyph name="currency" format="1">
  <advance width="1218.0"/>
  <unicode hex="00A4"/>
  <outline>
    <contour>
      <point x="1124.7" y="543.7" type="line"/>
      <point x="954.7" y="729.7" type="line"/>
      <point x="881.7" y="673.7"/>
      <point x="791.7" y="639.7"/>
      <point x="695.7" y="639.7" type="curve" smooth="yes"/>
      <point x="599.7" y="639.7"/>
      <point x="514.7" y="673.7"/>
      <point x="451.7" y="730.7" type="curve"/>
      <point x="247.7" y="543.7" type="line"/>
      <point x="201.7" y="594.7" type="line"/>
      <point x="404.7" y="781.7" type="line"/>
      <point x="355.7" y="847.7"/>
      <point x="329.7" y="931.7"/>
      <point x="337.7" y="1024.7" type="curve" smooth="yes"/>
      <point x="345.7" y="1121.7"/>
      <point x="389.7" y="1209.7"/>
      <point x="454.7" y="1276.7" type="curve"/>
      <point x="276.7" y="1471.7" type="line"/>
      <point x="332.7" y="1522.7" type="line"/>
      <point x="512.7" y="1326.7" type="line"/>
      <point x="583.7" y="1378.7"/>
      <point x="670.7" y="1409.7"/>
      <point x="762.7" y="1409.7" type="curve" smooth="yes"/>
      <point x="854.7" y="1409.7"/>
      <point x="935.7" y="1378.7"/>
      <point x="998.7" y="1327.7" type="curve"/>
      <point x="1210.7" y="1522.7" type="line"/>
      <point x="1256.7" y="1471.7" type="line"/>
      <point x="1046.7" y="1278.7" type="line"/>
      <point x="1100.7" y="1210.7"/>
      <point x="1129.7" y="1122.7"/>
      <point x="1120.7" y="1024.7" type="curve" smooth="yes"/>
      <point x="1112.7" y="931.7"/>
      <point x="1072.7" y="846.7"/>
      <point x="1010.7" y="779.7" type="curve"/>
      <point x="1180.7" y="594.7" type="line"/>
    </contour>
    <contour>
      <point x="700.7" y="710.7" type="curve" smooth="yes"/>
      <point x="874.7" y="710.7"/>
      <point x="1014.7" y="849.1"/>
      <point x="1029.7" y="1023.1" type="curve" smooth="yes"/>
      <point x="1044.7" y="1197.1"/>
      <point x="928.7" y="1331.7"/>
      <point x="754.7" y="1331.7" type="curve" smooth="yes"/>
      <point x="580.7" y="1331.7"/>
      <point x="440.7" y="1197.1"/>
      <point x="425.7" y="1023.1" type="curve" smooth="yes"/>
      <point x="410.7" y="849.1"/>
      <point x="526.7" y="710.7"/>
    </contour>
  </outline>
</glyph>
<glyph name="brokenbar" format="1">
  <advance width="500.0"/>
  <unicode hex="00A6"/>
  <outline>
    <contour>
      <point x="116.1" y="-474.0" type="line"/>
      <point x="192.1" y="403.6" type="line"/>
      <point x="388.3" y="403.6" type="line"/>
      <point x="311.6" y="-474.0" type="line"/>
    </contour>
    <contour>
      <point x="210.7" y="623.7" type="line"/>
      <point x="289.6" y="1526.7" type="line"/>
      <point x="485.1" y="1526.7" type="line"/>
      <point x="406.2" y="623.7" type="line"/>
    </contour>
  </outline>
</glyph>
<glyph name="section" format="1">
  <advance width="1079.5"/>
  <unicode hex="00A7"/>
  <outline>
    <contour>
      <point x="660.5" y="576.5" type="curve"/>
      <point x="705.1" y="608.8"/>
      <point x="755.6" y="652.3"/>
      <point x="761.0" y="715.6" type="curve" smooth="yes"/>
      <point x="769.4" y="814.6"/>
      <point x="661.7" y="839.1"/>
      <point x="566.0" y="888.9" type="curve"/>
      <point x="510.7" y="854.1"/>
      <point x="465.1" y="817.5"/>
      <point x="459.4" y="750.0" type="curve" smooth="yes"/>
      <point x="452.0" y="666.1"/>
      <point x="527.9" y="636.7"/>
    </contour>
    <contour>
      <point x="494.7" y="-34.2" type="curve" smooth="yes"/>
      <point x="397.3" y="-34.2"/>
      <point x="294.9" y="-15.6"/>
      <point x="204.0" y="22.3" type="curve"/>
      <point x="218.5" y="199.2" type="line"/>
      <point x="308.3" y="158.7"/>
      <point x="413.4" y="132.3"/>
      <point x="501.7" y="132.3" type="curve" smooth="yes"/>
      <point x="620.9" y="132.3"/>
      <point x="703.6" y="179.1"/>
      <point x="711.3" y="264.2" type="curve" smooth="yes"/>
      <point x="717.7" y="332.6"/>
      <point x="556.0" y="400.7"/>
      <point x="440.8" y="460.1" type="curve"/>
      <point x="312.4" y="521.8"/>
      <point x="229.3" y="610.7"/>
      <point x="240.0" y="731.9" type="curve" smooth="yes"/>
      <point x="248.7" y="835.0"/>
      <point x="332.8" y="917.6"/>
      <point x="428.2" y="970.5" type="curve"/>
      <point x="349.1" y="1029.2"/>
      <point x="306.1" y="1094.6"/>
      <point x="315.8" y="1204.8" type="curve" smooth="yes"/>
      <point x="333.1" y="1399.1"/>
      <point x="512.1" y="1487.2"/>
      <point x="717.9" y="1487.2" type="curve" smooth="yes"/>
      <point x="806.8" y="1487.2"/>
      <point x="888.1" y="1471.2"/>
      <point x="971.2" y="1442.7" type="curve"/>
      <point x="957.0" y="1274.5" type="line"/>
      <point x="898.6" y="1295.8"/>
      <point x="797.1" y="1320.4"/>
      <point x="718.0" y="1320.4" type="curve" smooth="yes"/>
      <point x="617.5" y="1320.4"/>
      <point x="535.9" y="1296.8"/>
      <point x="529.2" y="1213.3" type="curve" smooth="yes"/>
      <point x="523.5" y="1142.9"/>
      <point x="582.0" y="1095.3"/>
      <point x="728.6" y="1026.5" type="curve"/>
      <point x="869.1" y="956.9"/>
      <point x="999.5" y="883.5"/>
      <point x="987.2" y="741.2" type="curve" smooth="yes"/>
      <point x="978.5" y="639.2"/>
      <point x="894.7" y="557.6"/>
      <point x="802.0" y="496.7" type="curve"/>
      <point x="883.4" y="449.0"/>
      <point x="934.5" y="381.5"/>
      <point x="924.8" y="271.6" type="curve" smooth="yes"/>
      <point x="906.5" y="66.1"/>
      <point x="710.6" y="-34.2"/>
    </contour>
  </outline>
</glyph>
<glyph name="ordfeminine" format="1">
  <advance width="828.297642483"/>
  <unicode hex="00AA"/>
  <outline>
    <contour>
      <point x="414.8" y="757.4" type="curve" smooth="yes"/>
      <point x="528.3" y="757.4"/>
      <point x="608.8" y="804.1"/>
      <point x="660.9" y="922.2" type="curve"/>
      <point x="661.1" y="782.8" type="line"/>
      <point x="813.6" y="782.8" type="line"/>
      <point x="813.406621259" y="836.495422065"/>
      <point x="813.539289146" y="861.67317052"/>
      <point x="817.751288134" y="927.537699913" type="curve" smooth="yes"/>
      <point x="819.615759427" y="960.027063675"/>
      <point x="836.994740957" y="1150.9163466"/>
      <point x="843.1" y="1221.5" type="curve" smooth="yes"/>
      <point x="859.7" y="1415.4"/>
      <point x="734.3" y="1478.9"/>
      <point x="579.8" y="1478.9" type="curve" smooth="yes"/>
      <point x="438.0" y="1478.9"/>
      <point x="324.3" y="1439.2"/>
      <point x="281.3" y="1414.8" type="curve"/>
      <point x="321.8" y="1293.8" type="line"/>
      <point x="361.6" y="1308.9"/>
      <point x="460.7" y="1346.2"/>
      <point x="555.5" y="1346.2" type="curve" smooth="yes"/>
      <point x="646.6" y="1346.2"/>
      <point x="690.9" y="1308.6"/>
      <point x="680.8" y="1205.5" type="curve" smooth="yes"/>
      <point x="680.5" y="1202.3"/>
      <point x="678.1" y="1186.9"/>
      <point x="677.8" y="1182.7" type="curve"/>
      <point x="665.473098446" y="1182.5505133"/>
      <point x="605.790941797" y="1181.58853515"/>
      <point x="594.651365833" y="1181.21439019" type="curve" smooth="yes"/>
      <point x="305.336926958" y="1172.13251965"/>
      <point x="205.022381841" y="1085.85400306"/>
      <point x="193.7" y="956.7" type="curve" smooth="yes"/>
      <point x="182.4" y="824.6"/>
      <point x="281.7" y="757.4"/>
    </contour>
    <contour>
      <point x="455.0" y="868.9" type="curve" smooth="yes"/>
      <point x="385.9" y="868.9"/>
      <point x="355.8" y="900.8"/>
      <point x="360.5" y="956.8" type="curve" smooth="yes"/>
      <point x="370.2" y="1073.6"/>
      <point x="523.8" y="1078.7"/>
      <point x="669.6" y="1082.9" type="curve"/>
      <point x="669.479495415" y="1081.37253518"/>
      <point x="667.937692842" y="1070.04786707"/>
      <point x="667.775358489" y="1068.52643926" type="curve" smooth="yes"/>
      <point x="650.675644767" y="963.073306786"/>
      <point x="558.157308879" y="868.9"/>
    </contour>
  </outline>
</glyph>
<glyph name="paragraph" format="1">
  <advance width="1214.0"/>
  <unicode hex="00B6"/>
  <outline>
    <contour>
      <point x="440.1" y="-123.1" type="line"/>
      <point x="518.9" y="780.1" type="line"/>
      <point x="346.9" y="790.5"/>
      <point x="191.1" y="927.1"/>
      <point x="209.1" y="1130.2" type="curve" smooth="yes"/>
      <point x="231.4" y="1386.0"/>
      <point x="478.0" y="1456.0"/>
      <point x="755.3" y="1456.0" type="curve" smooth="yes"/>
      <point x="1191.4" y="1456.0" type="line"/>
      <point x="1177.5" y="1299.9" type="line"/>
      <point x="1070.6" y="1299.9" type="line"/>
      <point x="946.4" y="-123.1" type="line"/>
      <point x="783.7" y="-123.1" type="line"/>
      <point x="907.9" y="1299.9" type="line"/>
      <point x="740.0" y="1299.9" type="line"/>
      <point x="616.5" y="-123.1" type="line"/>
    </contour>
  </outline>
</glyph>
<glyph name="periodcentered" format="1">
  <advance width="444.0"/>
  <unicode hex="00B7"/>
  <outline>
    <contour>
      <point x="146.0" y="531.6" type="line"/>
      <point x="165.9" y="770.5" type="line"/>
      <point x="417.6" y="770.5" type="line"/>
      <point x="397.0" y="531.6" type="line"/>
    </contour>
  </outline>
</glyph>
<glyph name="cedilla" format="1">
  <advance width="529.0"/>
  <unicode hex="00B8"/>
  <outline>
    <contour>
      <point x="483.3" y="-271.0" type="curve" smooth="yes"/>
      <point x="483.3" y="-404.0773"/>
      <point x="350.2931" y="-472.944"/>
      <point x="173.0151" y="-472.944" type="curve" smooth="yes"/>
      <point x="119.3521" y="-472.944"/>
      <point x="62.93674" y="-466.2249"/>
      <point x="8.2" y="-453.9" type="curve"/>
      <point x="29.3" y="-346.3" type="line"/>
      <point x="67.62512" y="-355.1562"/>
      <point x="115.8926" y="-363.169"/>
      <point x="160.7986" y="-363.169" type="curve" smooth="yes"/>
      <point x="239.6269" y="-363.169"/>
      <point x="307.2" y="-338.5767"/>
      <point x="307.2" y="-266.0" type="curve" smooth="yes"/>
      <point x="307.2" y="-210.6292"/>
      <point x="252.9275" y="-173.688"/>
      <point x="165.9023" y="-173.688" type="curve" smooth="yes"/>
      <point x="160.093" y="-173.688"/>
      <point x="143.378" y="-173.9568"/>
      <point x="137.4" y="-174.5" type="curve"/>
      <point x="185.8" y="24.7" type="line"/>
      <point x="290.1" y="24.7" type="line"/>
      <point x="266.6" y="-94.7" type="line"/>
      <point x="406.2" y="-101.0"/>
      <point x="483.3" y="-182.3"/>
    </contour>
  </outline>
</glyph>
<glyph name="guillemotright" format="1">
  <advance width="1156.0"/>
  <unicode hex="00BB"/>
  <outline>
    <contour>
      <point x="117.9" y="164.9" type="line"/>
      <point x="419.1" y="542.0" type="line"/>
      <point x="191.2" y="918.2" type="line"/>
      <point x="395.4" y="918.2" type="line"/>
      <point x="636.9" y="542.0" type="line"/>
      <point x="325.4" y="164.9" type="line"/>
    </contour>
    <contour>
      <point x="547.0" y="164.9" type="line"/>
      <point x="843.9" y="543.3" type="line"/>
      <point x="621.3" y="918.2" type="line"/>
      <point x="821.6" y="918.2" type="line"/>
      <point x="1062.1" y="542.0" type="line"/>
      <point x="749.9" y="164.9" type="line"/>
    </contour>
  </outline>
</glyph>
<glyph name="onequarter" format="1">
  <advance width="2101.8"/>
  <unicode hex="00BC"/>
  <outline>
    <contour>
      <point x="1652.1" y="16.1" type="line"/>
      <point x="1668.8" y="196.7" type="line"/>
      <point x="1303.6" y="196.7" type="line"/>
      <point x="1313.2" y="308.6" type="line"/>
      <point x="1720.7" y="820.5" type="line"/>
      <point x="1882.3" y="820.5" type="line"/>
      <point x="1839.6" y="326.5" type="line"/>
      <point x="1950.8" y="326.5" type="line"/>
      <point x="1944.1" y="196.7" type="line"/>
      <point x="1826.0" y="196.7" type="line"/>
      <point x="1810.0" y="16.1" type="line"/>
    </contour>
    <contour>
      <point x="1492.4" y="326.5" type="curve"/>
      <point x="1677.7" y="326.5" type="line"/>
      <point x="1701.9" y="602.4" type="line"/>
      <point x="1642.9" y="525.2"/>
      <point x="1573.5" y="433.1"/>
    </contour>
    <contour>
      <point x="528.5" y="0.0" type="line"/>
      <point x="1549.6" y="1430.0" type="line"/>
      <point x="1745.8" y="1430.0" type="line"/>
      <point x="725.7" y="0.0" type="line"/>
    </contour>
    <contour>
      <point x="324.2" y="594.8" type="line"/>
      <point x="336.4" y="746.2" type="line"/>
      <point x="453.6" y="746.2" type="line"/>
      <point x="495.5" y="1223.6" type="line"/>
      <point x="453.7" y="1203.8"/>
      <point x="391.5" y="1180.1"/>
      <point x="342.6" y="1163.0" type="curve"/>
      <point x="357.8" y="1331.2" type="line"/>
      <point x="440.4" y="1357.4"/>
      <point x="495.1" y="1385.1"/>
      <point x="540.2" y="1410.2" type="curve"/>
      <point x="670.6" y="1428.4" type="line"/>
      <point x="611.2" y="744.2" type="line"/>
      <point x="729.0" y="744.2" type="line"/>
      <point x="716.8" y="594.8" type="line"/>
    </contour>
  </outline>
</glyph>
<glyph name="threequarters" format="1">
  <advance width="2244.3"/>
  <unicode hex="00BE"/>
  <outline>
    <contour>
      <point x="559.0" y="571.5" type="curve" smooth="yes"/>
      <point x="459.8" y="571.5"/>
      <point x="360.7" y="604.5"/>
      <point x="284.1" y="666.9" type="curve"/>
      <point x="359.2" y="793.1" type="line"/>
      <point x="432.0" y="736.3"/>
      <point x="511.3" y="715.1"/>
      <point x="568.5" y="715.1" type="curve" smooth="yes"/>
      <point x="646.2" y="715.1"/>
      <point x="707.7" y="757.4"/>
      <point x="714.4" y="832.8" type="curve" smooth="yes"/>
      <point x="721.8" y="913.8"/>
      <point x="652.7" y="943.7"/>
      <point x="536.1" y="943.7" type="curve" smooth="yes"/>
      <point x="534.0" y="943.7"/>
      <point x="463.1" y="943.0"/>
      <point x="463.1" y="943.0" type="curve"/>
      <point x="476.0" y="1094.1" type="line"/>
      <point x="543.9" y="1094.1" type="line" smooth="yes"/>
      <point x="641.9" y="1094.1"/>
      <point x="716.0" y="1118.3"/>
      <point x="722.4" y="1192.3" type="curve" smooth="yes"/>
      <point x="728.1" y="1257.8"/>
      <point x="680.7" y="1287.6"/>
      <point x="613.8" y="1287.6" type="curve" smooth="yes"/>
      <point x="542.5" y="1287.6"/>
      <point x="462.1" y="1256.9"/>
      <point x="389.2" y="1209.6" type="curve"/>
      <point x="337.6" y="1334.5" type="line"/>
      <point x="418.7" y="1391.6"/>
      <point x="528.3" y="1432.6"/>
      <point x="635.2" y="1432.6" type="curve" smooth="yes"/>
      <point x="774.9" y="1432.6"/>
      <point x="905.6" y="1352.2"/>
      <point x="892.6" y="1206.2" type="curve" smooth="yes"/>
      <point x="885.9" y="1136.2"/>
      <point x="849.0" y="1059.0"/>
      <point x="762.9" y="1022.0" type="curve"/>
      <point x="848.2" y="981.8"/>
      <point x="888.0" y="916.8"/>
      <point x="880.3" y="829.8" type="curve" smooth="yes"/>
      <point x="865.7" y="660.1"/>
      <point x="721.3" y="571.5"/>
    </contour>
    <contour>
      <point x="1604.4" y="326.5" type="line"/>
      <point x="1791.0" y="326.5" type="line"/>
      <point x="1815.2" y="602.4" type="line"/>
    </contour>
    <contour>
      <point x="1765.7" y="16.1" type="line"/>
      <point x="1782.4" y="196.7" type="line"/>
      <point x="1417.9" y="196.7" type="line"/>
      <point x="1427.5" y="308.6" type="line"/>
      <point x="1833.0" y="820.5" type="line"/>
      <point x="1994.6" y="820.5" type="line"/>
      <point x="1951.6" y="326.5" type="line"/>
      <point x="2064.1" y="326.5" type="line"/>
      <point x="2058.4" y="196.7" type="line"/>
      <point x="1939.6" y="196.7" type="line"/>
      <point x="1923.6" y="16.1" type="line"/>
    </contour>
    <contour>
      <point x="628.6" y="0.0" type="line"/>
      <point x="1649.4" y="1430.0" type="line"/>
      <point x="1845.6" y="1430.0" type="line"/>
      <point x="825.8" y="0.0" type="line"/>
    </contour>
  </outline>
</glyph>
<glyph name="multiply" format="1">
  <advance width="1243.0"/>
  <unicode hex="00D7"/>
  <outline>
    <contour>
      <point x="365.3" y="136.0" type="line"/>
      <point x="246.3" y="266.6" type="line"/>
      <point x="554.5" y="550.8" type="line"/>
      <point x="295.7" y="834.3" type="line"/>
      <point x="437.9" y="964.9" type="line"/>
      <point x="696.7" y="681.4" type="line"/>
      <point x="1005.2" y="964.9" type="line"/>
      <point x="1124.6" y="834.6" type="line"/>
      <point x="815.4" y="550.8" type="line"/>
      <point x="1075.2" y="267.0" type="line"/>
      <point x="933.3" y="136.0" type="line"/>
      <point x="674.2" y="419.5" type="line"/>
    </contour>
  </outline>
</glyph>
<glyph name="Oslash" format="1">
  <advance width="1663.0"/>
  <unicode hex="00D8"/>
  <outline>
    <contour>
      <point x="438.0" y="-131.2" type="line"/>
      <point x="331.1" y="-71.6" type="line"/>
      <point x="1330.1" y="1555.4" type="line"/>
      <point x="1437.0" y="1495.8" type="line"/>
    </contour>
    <component base="O"/>
  </outline>
</glyph>
<glyph name="germandbls" format="1">
  <advance width="1284.6"/>
  <unicode hex="00DF"/>
  <outline>
    <contour>
      <point x="805.5" y="-23.0" type="curve" smooth="yes"/>
      <point x="688.9" y="-23.0"/>
      <point x="567.2" y="30.5"/>
      <point x="483.1" y="150.2" type="curve"/>
      <point x="580.2" y="289.2" type="line"/>
      <point x="658.2" y="187.6"/>
      <point x="745.7" y="141.4"/>
      <point x="815.1" y="141.4" type="curve" smooth="yes"/>
      <point x="907.4" y="141.4"/>
      <point x="989.3" y="208.4"/>
      <point x="999.7" y="328.4" type="curve" smooth="yes"/>
      <point x="1015.8" y="508.0"/>
      <point x="834.6" y="621.6"/>
      <point x="636.2" y="740.3" type="curve"/>
      <point x="664.2" y="889.1" type="line"/>
      <point x="788.0" y="941.2"/>
      <point x="904.2" y="1045.1"/>
      <point x="914.9" y="1167.9" type="curve" smooth="yes"/>
      <point x="923.6" y="1271.5"/>
      <point x="852.9" y="1334.2"/>
      <point x="742.1" y="1334.2" type="curve" smooth="yes"/>
      <point x="582.4" y="1334.2"/>
      <point x="492.3" y="1180.1"/>
      <point x="478.2" y="1019.7" type="curve" smooth="yes"/>
      <point x="454.8" y="751.4"/>
      <point x="416.4" y="264.1"/>
      <point x="393.3" y="0.0" type="curve"/>
      <point x="189.2" y="0.0" type="line"/>
      <point x="280.0" y="1052.5" type="line"/>
      <point x="304.6" y="1317.5"/>
      <point x="479.8" y="1495.6"/>
      <point x="756.0" y="1495.6" type="curve" smooth="yes"/>
      <point x="1011.3" y="1495.6"/>
      <point x="1158.7" y="1352.2"/>
      <point x="1143.7" y="1176.9" type="curve" smooth="yes"/>
      <point x="1130.6" y="1032.3"/>
      <point x="982.5" y="905.5"/>
      <point x="858.9" y="848.6" type="curve" smooth="yes"/>
      <point x="833.9" y="836.8"/>
      <point x="810.7" y="826.9"/>
      <point x="791.1" y="817.6" type="curve"/>
      <point x="809.7" y="810.3"/>
      <point x="833.5" y="801.4"/>
      <point x="860.5" y="792.2" type="curve" smooth="yes"/>
      <point x="1058.0" y="724.0"/>
      <point x="1249.9" y="587.3"/>
      <point x="1228.8" y="347.1" type="curve" smooth="yes"/>
      <point x="1209.5" y="120.3"/>
      <point x="1005.0" y="-23.0"/>
    </contour>
  </outline>
</glyph>
<glyph name="dcroat" format="1">
  <advance width="1255.9"/>
  <unicode hex="0111"/>
  <outline>
    <contour>
      <point x="707.4" y="1210.6" type="line"/>
      <point x="721.0" y="1357.8" type="line"/>
      <point x="1334.5" y="1357.8" type="line"/>
      <point x="1320.9" y="1210.6" type="line"/>
    </contour>
    <component base="d"/>
  </outline>
</glyph>
<glyph name="Hbar" format="1">
  <advance width="1538.6"/>
  <unicode hex="0126"/>
  <outline>
    <contour>
      <point x="173.6" y="1113.7" type="line"/>
      <point x="187.2" y="1267.9" type="line"/>
      <point x="1542.6" y="1267.9" type="line"/>
      <point x="1529.0" y="1113.7" type="line"/>
    </contour>
    <component base="H"/>
  </outline>
</glyph>
<glyph name="kgreenlandic" format="1">
  <advance width="1093.9"/>
  <unicode hex="0138"/>
  <outline>
    <contour>
      <point x="151.0" y="0.0" type="line"/>
      <point x="241.0" y="1026.0" type="line"/>
      <point x="444.5" y="1026.0" type="line"/>
      <point x="406.4" y="590.7" type="line"/>
      <point x="858.2" y="1026.0" type="line"/>
      <point x="1136.5" y="1026.0" type="line"/>
      <point x="570.5" y="510.4" type="line"/>
      <point x="647.5" y="434.1"/>
      <point x="1005.9" y="76.3"/>
      <point x="1082.9" y="0.0" type="curve"/>
      <point x="811.9" y="0.0" type="line"/>
      <point x="392.3" y="431.2" type="line"/>
      <point x="354.5" y="0.0" type="line"/>
    </contour>
  </outline>
</glyph>
<glyph name="Lslash" format="1">
  <advance width="1141.5"/>
  <unicode hex="0141"/>
  <outline>
    <contour>
      <point x="736.9" y="908.6" type="line"/>
      <point x="79.7" y="484.5" type="line"/>
      <point x="95.9" y="662.9" type="line"/>
      <point x="752.1" y="1087.0" type="line"/>
    </contour>
    <component base="L"/>
  </outline>
</glyph>
<glyph name="Eng" format="1">
  <advance width="1585.4"/>
  <unicode hex="014A"/>
  <outline>
    <contour>
      <point x="521.2" y="-386.7" type="curve"/>
      <point x="561.5" y="-222.1" type="line"/>
      <point x="675.0" y="-253.7"/>
      <point x="777.7" y="-272.4"/>
      <point x="865.8" y="-272.4" type="curve" smooth="yes"/>
      <point x="1049.0" y="-272.4"/>
      <point x="1162.0" y="-208.1"/>
      <point x="1185.6" y="-12.7" type="curve" smooth="yes"/>
      <point x="1186.3" y="-8.5"/>
      <point x="1192.1" y="64.1"/>
      <point x="1192.8" y="68.3" type="curve"/>
      <point x="576.1" y="1024.0" type="line"/>
      <point x="489.7" y="1175.3" type="line"/>
      <point x="387.6" y="0.0" type="line"/>
      <point x="186.7" y="0.0" type="line"/>
      <point x="313.7" y="1456.0" type="line"/>
      <point x="543.4" y="1456.0" type="line"/>
      <point x="1132.8" y="521.0" type="line"/>
      <point x="1220.7" y="369.9" type="line"/>
      <point x="1315.6" y="1456.0" type="line"/>
      <point x="1519.0" y="1456.0" type="line"/>
      <point x="1397.9" y="72.8" type="line" smooth="yes"/>
      <point x="1368.6" y="-267.3"/>
      <point x="1197.5" y="-433.2"/>
      <point x="857.8" y="-433.2" type="curve" smooth="yes"/>
      <point x="760.0" y="-433.2"/>
      <point x="647.9" y="-417.5"/>
    </contour>
  </outline>
</glyph>
<glyph name="circumflex" format="1">
  <advance width="699.0"/>
  <unicode hex="02C6"/>
  <outline>
    <contour>
      <point x="110.1" y="1124.1" type="line"/>
      <point x="393.1" y="1507.1" type="line"/>
      <point x="571.0" y="1507.1" type="line"/>
      <point x="794.6" y="1124.1" type="line"/>
      <point x="620.8" y="1124.1" type="line"/>
      <point x="475.6" y="1373.6" type="line"/>
      <point x="282.3" y="1124.1" type="line"/>
    </contour>
  </outline>
</glyph>
<glyph name="breve" format="1">
  <advance width="628.3"/>
  <unicode hex="02D8"/>
  <outline>
    <contour>
      <point x="427.5" y="1192.0" type="curve" smooth="yes"/>
      <point x="250.6" y="1192.0"/>
      <point x="147.7" y="1276.4"/>
      <point x="150.0" y="1456.0" type="curve"/>
      <point x="281.7" y="1456.0" type="line"/>
      <point x="285.2" y="1360.3"/>
      <point x="362.7" y="1331.4"/>
      <point x="436.6" y="1331.4" type="curve" smooth="yes"/>
      <point x="510.5" y="1331.4"/>
      <point x="594.8" y="1363.1"/>
      <point x="618.4" y="1456.0" type="curve"/>
      <point x="747.4" y="1456.0" type="line"/>
      <point x="718.5" y="1277.8"/>
      <point x="600.2" y="1192.0"/>
    </contour>
  </outline>
</glyph>
<glyph name="quotesinglbase" format="1">
  <advance width="553.0"/>
  <unicode hex="201A"/>
  <outline>
    <contour>
      <point x="86.4" y="-230.0" type="line"/>
      <point x="237.5" y="229.9" type="line"/>
      <point x="461.5" y="229.9" type="line"/>
      <point x="260.5" y="-230.0" type="line"/>
    </contour>
  </outline>
</glyph>
<glyph name="quotedblright" format="1">
  <advance width="1024.0"/>
  <unicode hex="201D"/>
  <outline>
    <contour>
      <point x="235.7" y="990.5" type="line"/>
      <point x="382.5" y="1450.0" type="line"/>
      <point x="608.8" y="1450.0" type="line"/>
      <point x="408.2" y="990.5" type="line"/>
    </contour>
    <contour>
      <point x="582.6" y="990.5" type="line"/>
      <point x="731.0" y="1450.0" type="line"/>
      <point x="955.7" y="1450.0" type="line"/>
      <point x="754.1" y="990.5" type="line"/>
    </contour>
  </outline>
</glyph>
<glyph name="perthousand" format="1">
  <advance width="2478.7"/>
  <unicode hex="2030"/>
  <outline>
    <contour>
      <point x="483.6" y="828.3" type="curve" smooth="yes"/>
      <point x="601.0" y="828.3"/>
      <point x="667.2" y="933.5"/>
      <point x="678.2" y="1061.2" type="curve" smooth="yes"/>
      <point x="688.9" y="1186.6"/>
      <point x="645.2" y="1296.5"/>
      <point x="522.9" y="1296.5" type="curve" smooth="yes"/>
      <point x="401.3" y="1296.5"/>
      <point x="337.6" y="1185.2"/>
      <point x="326.9" y="1062.6" type="curve" smooth="yes"/>
      <point x="315.2" y="932.1"/>
      <point x="364.1" y="828.3"/>
    </contour>
    <contour>
      <point x="469.9" y="694.4" type="curve" smooth="yes"/>
      <point x="250.1" y="694.4"/>
      <point x="131.4" y="848.0"/>
      <point x="150.4" y="1062.6" type="curve" smooth="yes"/>
      <point x="168.4" y="1268.8"/>
      <point x="313.0" y="1429.0"/>
      <point x="534.5" y="1429.0" type="curve" smooth="yes"/>
      <point x="756.7" y="1429.0"/>
      <point x="872.7" y="1274.4"/>
      <point x="854.0" y="1061.2" type="curve" smooth="yes"/>
      <point x="835.7" y="852.2"/>
      <point x="689.7" y="694.4"/>
    </contour>
    <contour>
      <point x="273.2" y="-9.1" type="line"/>
      <point x="1320.6" y="1423.8" type="line"/>
      <point x="1494.6" y="1423.8" type="line"/>
      <point x="449.0" y="-9.1" type="line"/>
    </contour>
    <contour>
      <point x="1243.0" y="109.1" type="curve" smooth="yes"/>
      <point x="1361.1" y="109.1"/>
      <point x="1428.0" y="215.0"/>
      <point x="1439.0" y="342.7" type="curve" smooth="yes"/>
      <point x="1449.7" y="468.1"/>
      <point x="1406.7" y="576.6"/>
      <point x="1283.7" y="576.6" type="curve" smooth="yes"/>
      <point x="1161.4" y="576.6"/>
      <point x="1097.7" y="466.0"/>
      <point x="1087.0" y="343.4" type="curve" smooth="yes"/>
      <point x="1075.3" y="212.2"/>
      <point x="1124.9" y="109.1"/>
    </contour>
    <contour>
      <point x="1230.7" y="-24.1" type="curve" smooth="yes"/>
      <point x="1010.9" y="-24.1"/>
      <point x="892.2" y="128.8"/>
      <point x="911.2" y="343.4" type="curve" smooth="yes"/>
      <point x="929.2" y="549.6"/>
      <point x="1073.8" y="710.5"/>
      <point x="1296.0" y="710.5" type="curve" smooth="yes"/>
      <point x="1518.2" y="710.5"/>
      <point x="1632.8" y="553.8"/>
      <point x="1614.1" y="342.0" type="curve" smooth="yes"/>
      <point x="1595.8" y="133.0"/>
      <point x="1450.5" y="-24.1"/>
    </contour>
    <contour>
      <point x="2050.6" y="109.1" type="curve" smooth="yes"/>
      <point x="2168.7" y="109.1"/>
      <point x="2235.6" y="215.0"/>
      <point x="2246.6" y="342.7" type="curve" smooth="yes"/>
      <point x="2257.3" y="467.4"/>
      <point x="2212.2" y="576.6"/>
      <point x="2090.6" y="576.6" type="curve" smooth="yes"/>
      <point x="1968.3" y="576.6"/>
      <point x="1905.3" y="466.0"/>
      <point x="1894.6" y="343.4" type="curve" smooth="yes"/>
      <point x="1882.9" y="212.2"/>
      <point x="1932.5" y="109.1"/>
    </contour>
    <contour>
      <point x="2037.6" y="-24.1" type="curve" smooth="yes"/>
      <point x="1818.5" y="-24.1"/>
      <point x="1699.8" y="128.8"/>
      <point x="1718.8" y="343.4" type="curve" smooth="yes"/>
      <point x="1736.8" y="549.6"/>
      <point x="1881.4" y="710.5"/>
      <point x="2103.6" y="710.5" type="curve" smooth="yes"/>
      <point x="2324.4" y="710.5"/>
      <point x="2440.4" y="555.9"/>
      <point x="2421.7" y="342.0" type="curve" smooth="yes"/>
      <point x="2403.4" y="133.0"/>
      <point x="2258.1" y="-24.1"/>
    </contour>
  </outline>
</glyph>
<glyph name="fraction" format="1">
  <advance width="1152.08495177"/>
  <unicode hex="2044"/>
  <outline>
    <contour>
      <point x="33.5" y="0.0" type="line"/>
      <point x="1057.2" y="1456.0" type="line"/>
      <point x="1253.4" y="1456.0" type="line"/>
      <point x="231.4" y="0.0" type="line"/>
    </contour>
  </outline>
</glyph>
<glyph name="product" format="1">
  <advance width="1568.0"/>
  <unicode hex="220F"/>
  <outline>
    <contour>
      <point x="218.5" y="-269.7" type="line"/>
      <point x="355.0" y="1284.7" type="line"/>
      <point x="178.0" y="1284.7" type="line"/>
      <point x="196.2" y="1456.0" type="line"/>
      <point x="1616.0" y="1456.0" type="line"/>
      <point x="1600.3" y="1284.7" type="line"/>
      <point x="1445.1" y="1284.7" type="line"/>
      <point x="1308.6" y="-269.7" type="line"/>
      <point x="1082.5" y="-269.7" type="line"/>
      <point x="1219.0" y="1284.7" type="line"/>
      <point x="576.2" y="1284.7" type="line"/>
      <point x="439.7" y="-269.7" type="line"/>
    </contour>
  </outline>
</glyph>
<glyph name="radical" format="1">
  <advance width="1314.0"/>
  <unicode hex="221A"/>
  <outline>
    <contour>
      <point x="545.9" y="-148.2" type="line"/>
      <point x="297.5" y="664.0" type="line"/>
      <point x="295.9" y="663.7"/>
      <point x="129.3" y="634.7"/>
      <point x="129.3" y="634.7" type="curve"/>
      <point x="110.3" y="778.8" type="line"/>
      <point x="444.9" y="834.0" type="line"/>
      <point x="639.5" y="145.6" type="line"/>
      <point x="1148.4" y="1576.1" type="line"/>
      <point x="1324.6" y="1576.1" type="line"/>
      <point x="713.6" y="-148.2" type="line"/>
    </contour>
  </outline>
</glyph>
<glyph name="notequal" format="1">
  <advance width="1351.0"/>
  <unicode hex="2260"/>
  <outline>
    <contour>
      <point x="478.2" y="41.2" type="line"/>
      <point x="317.1" y="65.3" type="line"/>
      <point x="458.1" y="313.1" type="line"/>
      <point x="187.9" y="313.1" type="line"/>
      <point x="177.4" y="465.2" type="line"/>
      <point x="549.4" y="465.2" type="line"/>
      <point x="693.8" y="702.0" type="line"/>
      <point x="223.6" y="702.0" type="line"/>
      <point x="211.4" y="855.1" type="line"/>
      <point x="779.7" y="855.1" type="line"/>
      <point x="934.6" y="1122.7" type="line"/>
      <point x="1100.3" y="1098.9" type="line"/>
      <point x="958.0" y="855.1" type="line"/>
      <point x="1246.2" y="855.1" type="line"/>
      <point x="1257.1" y="702.0" type="line"/>
      <point x="871.7" y="702.0" type="line"/>
      <point x="725.0" y="465.2" type="line"/>
      <point x="1212.2" y="465.2" type="line"/>
      <point x="1222.7" y="313.1" type="line"/>
      <point x="637.4" y="313.1" type="line"/>
    </contour>
  </outline>
</glyph>
